<svg width="1196" height="1196" xmlns="http://www.w3.org/2000/svg" xmlns:xlink="http://www.w3.org/1999/xlink" xml:space="preserve" overflow="hidden"><defs><clipPath id="clip0"><rect x="2924" y="279" width="1196" height="1196"/></clipPath></defs><g clip-path="url(#clip0)" transform="translate(-2924 -279)"><path d="M2939.5 878.5C2939.5 555.413 3201.19 293.5 3524 293.5 3846.81 293.5 4108.5 555.413 4108.5 878.5 4108.5 1201.59 3846.81 1463.5 3524 1463.5 3201.19 1463.5 2939.5 1201.59 2939.5 878.5ZM3174.05 878.5C3174.05 1072.05 3330.73 1228.95 3524 1228.95 3717.27 1228.95 3873.95 1072.05 3873.95 878.5 3873.95 684.951 3717.27 528.048 3524 528.048 3330.73 528.048 3174.05 684.951 3174.05 878.5Z" stroke="#0070C0" stroke-width="22.9167" stroke-linecap="butt" stroke-linejoin="miter" stroke-miterlimit="8" stroke-opacity="1" fill="#8497B0" fill-rule="evenodd" fill-opacity="1"/></g></svg>