<svg width="584" height="349" xmlns="http://www.w3.org/2000/svg" xmlns:xlink="http://www.w3.org/1999/xlink" xml:space="preserve" overflow="hidden"><defs><clipPath id="clip0"><rect x="348" y="184" width="584" height="349"/></clipPath></defs><g clip-path="url(#clip0)" transform="translate(-348 -184)"><path d="M-247.869 99.0892-247.869-99.0425 247.733-99.0425 247.733 99.0892-247.869 99.0892Z" fill="#000000" fill-rule="nonzero" fill-opacity="1" transform="matrix(1 0 0 1.00165 640 359.641)"/><path d="M1.93647e-13 147.112-147.112 0 1.93647e-13-147.112 147.112 0 1.93647e-13 147.112Z" fill="#1C0B7F" fill-rule="nonzero" fill-opacity="1" transform="matrix(1 0 0 1.00165 640 359.641)"/><path d="M2.07476e-14 89.2021-89.2021 0 1.38319e-14-89.2021 89.2021 0 1.38319e-14 89.2021Z" fill="#FF383D" fill-rule="nonzero" fill-opacity="1" transform="matrix(1 0 0 1.00165 640 359.641)"/><path d="M-167.232-9.99458C-167.232-11.1239-167.232-12.7953-167.232-15.0088-169.446-15.0088-172.789-15.0088-177.261-15.0088-177.261-8.32317-177.261 1.6827-177.261 15.0088-175.002 15.0088-171.659 15.0088-167.232 15.0088-167.232 12.7501-167.232 9.40733-167.232 4.98035-168.362 4.98035-170.033 4.98035-172.247 4.98035-172.247 2.76686-172.247-0.553373-172.247-4.98035-168.904-4.98035-163.912-4.98035-157.272-4.98035-157.272-2.76686-157.272 0.553373-157.272 4.98035-157.272 8.32317-157.272 13.3148-157.272 19.9553-157.272 21.3557-157.746 22.5302-158.694 23.4787-159.688 24.4726-160.863 24.9695-162.218 24.9695-166.69 24.9695-173.353 24.9695-182.206 24.9695-183.607 24.9695-184.781 24.4726-185.73 23.4787-186.724 22.5302-187.221 21.3557-187.221 19.9553-187.221 16.6125-187.221 11.5982-187.221 4.91261-187.221 2.15704-187.221-1.2761-187.221-5.38682-187.221-9.58798-187.221-14.4667-187.221-20.023-187.221-21.3783-186.724-22.5528-185.73-23.5465-184.781-24.4952-183.607-24.9695-182.206-24.9695-177.779-24.9695-171.117-24.9695-162.218-24.9695-160.863-24.9695-159.688-24.4952-158.694-23.5465-157.746-22.5528-157.272-21.3783-157.272-20.023-157.272-17.7644-157.272-14.4216-157.272-9.99458-159.485-9.99458-162.805-9.99458-167.232-9.99458Z" fill="#FFFFFF" fill-rule="nonzero" fill-opacity="1" transform="matrix(1 0 0 1.00165 640 359.641)"/><path d="M-117.293 24.9699C-119.506 24.9699-122.826 24.9699-127.253 24.9699-127.253 20.5429-127.253 13.8801-127.253 4.98152-129.467 4.98152-132.81 4.98152-137.282 4.98152-137.282 9.4085-137.282 16.0713-137.282 24.9699-139.495 24.9699-142.815 24.9699-147.242 24.9699-147.242 21.2205-147.242 15.5739-147.242 8.03-147.242 4.913-147.242 1.0281-147.242-3.62469-147.242-8.32265-147.242-13.7886-147.242-20.0226-147.242-21.3779-146.746-22.5524-145.752-23.5461-144.803-24.4948-143.629-24.9691-142.228-24.9691-137.801-24.9691-131.138-24.9691-122.24-24.9691-120.885-24.9691-119.71-24.4948-118.716-23.5461-117.768-22.5524-117.293-21.3779-117.293-20.0226-117.293-9.99419-117.293 5.00358-117.293 24.9707ZM-127.253-4.97957C-127.253-5.38613-127.253-5.97338-127.253-6.74133-127.253-8.59339-127.253-11.349-127.253-15.008-129.467-15.008-132.81-15.008-137.282-15.008-137.282-12.7946-137.282-9.45174-137.282-4.97959-135.023-4.97959-131.68-4.97959-127.253-4.97959Z" fill="#FFFFFF" fill-rule="nonzero" fill-opacity="1" transform="matrix(1 0 0 1.00165 640 359.641)"/><path d="M-57.3254-20.0234C-57.3254-9.99497-57.3254 5.0028-57.3254 24.9699-59.5389 24.9699-62.8592 24.9699-67.2861 24.9699-67.2861 16.0708-67.2861 2.74454-67.2861-15.0088-69.4996-15.0088-72.8425-15.0088-77.3146-15.0088-77.3146-6.10968-77.3146 7.21655-77.3146 24.9699-79.5281 24.9699-82.8483 24.9699-87.2753 24.9699-87.2753 16.0708-87.2753 2.74454-87.2753-15.0088-89.4888-15.0088-92.8316-15.0088-97.3037-15.0088-97.3037-6.10968-97.3037 7.21655-97.3037 24.9699-99.5172 24.9699-102.837 24.9699-107.264 24.9699-107.264 21.2205-107.264 15.5739-107.264 8.03-107.264 4.913-107.264 1.0281-107.264-3.62469-107.264-8.32265-107.264-13.7886-107.264-20.0226-107.264-21.3779-106.768-22.5524-105.774-23.5461-104.825-24.4948-103.651-24.9691-102.25-24.9691-98.9526-24.9691-93.9609-24.9691-87.2753-24.9691-85.875-24.9691-84.7005-24.4948-83.7518-23.5461-82.758-22.5524-82.2611-21.3779-82.2611-20.0226-82.2611-21.3779-81.7867-22.5524-80.8381-23.5461-79.8444-24.4948-78.6699-24.9691-77.3146-24.9691-73.9718-24.9691-68.9576-24.9691-62.2719-24.9691-60.9168-24.9691-59.7423-24.4948-58.7485-23.5461-57.7998-22.5524-57.3254-21.3779-57.3254-20.0226Z" fill="#FFFFFF" fill-rule="nonzero" fill-opacity="1" transform="matrix(1 0 0 1.00165 640 359.641)"/><path d="M-17.3466-15.0088C-17.3466-16.6802-17.3466-20.0004-17.3466-24.9695-20.6442-24.9695-27.307-24.9695-37.3349-24.9695-38.9612-24.9695-42.2814-24.9695-47.2956-24.9695-47.2956-23.2981-47.2956-19.9779-47.2956-15.0088-47.2956-13.3374-47.2956-9.99458-47.2956-4.98035-47.2956-3.35411-47.2956-0.033872-47.2956 4.98035-47.2956 6.06452-47.2956 7.4423-47.2956 9.11371-47.2956 10.7851-47.2956 12.7501-47.2956 15.0088-47.2956 17.2223-47.2956 20.5425-47.2956 24.9695-45.0821 24.9695-41.7619 24.9695-37.3349 24.9695-32.8628 24.9695-26.2 24.9695-17.3466 24.9695-17.3466 22.756-17.3466 19.4358-17.3466 15.0088-21.7735 15.0088-28.4363 15.0088-37.3349 15.0088-37.3349 12.7501-37.3349 9.40733-37.3349 4.98035-33.9921 4.98035-28.9779 4.98035-22.2923 4.98035-22.2923 2.76686-22.2923-0.553373-22.2923-4.98035-25.6351-4.98035-30.6493-4.98035-37.3349-4.98035-37.3349-7.239-37.3349-10.5818-37.3349-15.0088-32.8628-15.0088-26.2-15.0088-17.3466-15.0088Z" fill="#FFFFFF" fill-rule="nonzero" fill-opacity="1" transform="matrix(1 0 0 1.00165 640 359.641)"/><path d="M62.6106-20.0234C62.6106-11.1243 62.6106 2.20194 62.6106 19.9553 62.6106 21.3557 62.1364 22.5302 61.1878 23.4787 60.194 24.4726 59.0195 24.9695 57.6644 24.9695 53.1921 24.9695 46.5293 24.9695 37.676 24.9695 36.2757 24.9695 35.1012 24.4726 34.1525 23.4787 33.1587 22.5302 32.6618 21.3557 32.6618 19.9553 32.6618 16.6125 32.6618 11.5982 32.6618 4.91261 32.6618 2.15704 32.6618-1.2761 32.6618-5.38682 32.6618-9.58798 32.6618-14.4667 32.6618-20.023 32.6618-21.3783 33.1587-22.5528 34.1525-23.5465 35.1012-24.4952 36.2757-24.9695 37.676-24.9695 42.103-24.9695 48.7658-24.9695 57.6644-24.9695 59.0195-24.9695 60.194-24.4952 61.1878-23.5465 62.1364-22.5528 62.6106-21.3783 62.6106-20.023ZM42.6223 15.0088C44.8809 15.0088 48.2237 15.0088 52.6507 15.0088 52.6507 14.5571 52.6507 13.9021 52.6507 13.0438 52.6507 6.80996 52.6507-2.54118 52.6507-15.0096 50.4372-15.0096 47.0944-15.0096 42.6223-15.0096 42.6223-11.6668 42.6223-6.67512 42.6223-0.0346507 42.6223 3.30817 42.6223 8.32239 42.6223 15.008Z" fill="#FFFFFF" fill-rule="nonzero" fill-opacity="1" transform="matrix(1 0 0 1.00165 640 359.641)"/><path d="M71.283-24.9699C73.1351-24.9699 76.8619-24.9699 82.4633-24.9699 83.7283-18.9618 86.2354-6.90028 89.9847 11.2147 91.2496 5.20668 93.7568-6.85486 97.5062-24.9699 99.3583-24.9699 103.085-24.9699 108.686-24.9699 106.428-16.658 101.865-0.0114204 94.9991 24.9699 93.3276 24.9699 89.9847 24.9699 84.9704 24.9699 81.9439 13.8573 77.3814-2.78931 71.283-24.9699Z" fill="#FFFFFF" fill-rule="nonzero" fill-opacity="1" transform="matrix(1 0 0 1.00165 640 359.641)"/><path d="M147.242-15.0088C147.242-16.6802 147.242-20.0004 147.242-24.9695 143.944-24.9695 137.282-24.9695 127.254-24.9695 125.627-24.9695 122.307-24.9695 117.293-24.9695 117.293-23.2981 117.293-19.9779 117.293-15.0088 117.293-13.3374 117.293-9.99458 117.293-4.98035 117.293-3.35411 117.293-0.033872 117.293 4.98035 117.293 6.06452 117.293 7.4423 117.293 9.11371 117.293 10.7851 117.293 12.7501 117.293 15.0088 117.293 17.2223 117.293 20.5425 117.293 24.9695 119.506 24.9695 122.827 24.9695 127.254 24.9695 131.726 24.9695 138.389 24.9695 147.242 24.9695 147.242 22.756 147.242 19.4358 147.242 15.0088 142.815 15.0088 136.152 15.0088 127.254 15.0088 127.254 12.7501 127.254 9.40733 127.254 4.98035 130.596 4.98035 135.611 4.98035 142.296 4.98035 142.296 2.76686 142.296-0.553373 142.296-4.98035 138.954-4.98035 133.939-4.98035 127.254-4.98035 127.254-7.239 127.254-10.5818 127.254-15.0088 131.726-15.0088 138.389-15.0088 147.242-15.0088Z" fill="#FFFFFF" fill-rule="nonzero" fill-opacity="1" transform="matrix(1 0 0 1.00165 640 359.641)"/><path d="M182.274-0.0338798C183.629-0.0338798 184.804 0.463026 185.798 1.45684 186.746 2.40548 187.221 3.57996 187.221 4.98031 187.221 9.40729 187.221 16.0701 187.221 24.9687 185.007 24.9687 181.687 24.9687 177.26 24.9687 177.26 20.5417 177.26 13.8789 177.26 4.98031 175.046 4.98031 171.704 4.98031 167.232 4.98031 167.232 9.40729 167.232 16.0701 167.232 24.9687 165.018 24.9687 161.698 24.9687 157.271 24.9687 157.271 20.5417 157.271 13.8789 157.271 4.98031 157.271 2.76682 157.271-0.553419 157.271-4.9804 157.271-7.19389 157.271-9.97204 157.271-13.3149 157.271-16.6577 157.271-20.5426 157.271-24.9696 159.484-24.9696 162.805-24.9696 167.232-24.9696 170.574-24.9696 175.589-24.9696 182.274-24.9696 183.629-24.9696 184.804-24.4952 185.798-23.5465 186.746-22.5528 187.221-21.3783 187.221-20.0231 187.221-16.6803 187.221-11.666 187.221-4.9804 187.221-3.62526 186.746-2.45077 185.798-1.45693 184.804-0.508295 183.629-0.0339771 182.274-0.0339771ZM177.26-4.98036C177.26-5.38691 177.26-5.97417 177.26-6.74211 177.26-8.59417 177.26-11.3497 177.26-15.0088 175.046-15.0088 171.704-15.0088 167.232-15.0088 167.232-12.7953 167.232-9.45252 167.232-4.98038 169.49-4.98038 172.833-4.98038 177.26-4.98038Z" fill="#FFFFFF" fill-rule="nonzero" fill-opacity="1" transform="matrix(1 0 0 1.00165 640 359.641)"/></g></svg>